<?xml version="1.0" standalone="no"?>
<!DOCTYPE svg PUBLIC "-//W3C//DTD SVG 20010904//EN"
 "http://www.w3.org/TR/2001/REC-SVG-20010904/DTD/svg10.dtd">
<svg version="1.0" xmlns="http://www.w3.org/2000/svg"
 width="1440.000000pt" height="544.000000pt" viewBox="0 0 1440.000000 544.000000"
 preserveAspectRatio="xMidYMid meet">
<metadata>
Created by potrace 1.16, written by Peter Selinger 2001-2019
</metadata>
<g transform="translate(0.000000,544.000000) scale(0.100000,-0.100000)"
fill="#000000" stroke="none">
<path d="M2352 5040 c-64 -14 -166 -74 -205 -123 -43 -52 -97 -143 -97 -162 0
-20 -296 -505 -323 -530 -22 -19 -98 -142 -487 -780 -101 -165 -327 -536 -503
-824 -176 -288 -328 -546 -338 -572 -23 -60 -25 -156 -4 -225 35 -119 153
-229 270 -252 90 -18 120 -15 201 23 89 42 153 98 198 174 18 31 138 227 266
436 128 209 388 634 578 945 190 311 386 633 437 715 465 758 438 705 431 867
-3 76 -6 90 -38 139 -43 68 -85 104 -163 141 -68 31 -155 42 -223 28z"/>
<path d="M9180 4997 c-74 -15 -124 -38 -136 -64 -5 -10 -11 -289 -14 -620 l-5
-603 -74 60 c-96 79 -188 133 -292 171 -75 29 -98 32 -224 37 -81 2 -171 0
-214 -7 -518 -81 -820 -557 -821 -1297 0 -322 47 -565 149 -774 124 -251 323
-411 581 -467 122 -26 335 -24 449 5 151 38 325 138 472 271 l67 61 3 -119 c5
-136 10 -148 88 -178 37 -15 76 -18 201 -18 164 1 216 10 258 48 l22 20 0
1697 c0 1697 0 1697 -21 1723 -32 42 -104 58 -274 63 -95 2 -174 -1 -215 -9z
m-538 -1605 c93 -31 148 -70 271 -193 l117 -119 0 -376 0 -376 -26 -32 c-46
-55 -159 -170 -199 -203 -182 -148 -427 -147 -565 4 -90 98 -136 226 -157 438
-31 300 19 568 134 719 50 65 97 102 169 131 74 31 176 33 256 7z"/>
<path d="M3641 4920 c-24 -5 -66 -22 -95 -38 -43 -24 -57 -40 -86 -97 l-35
-68 0 -142 c0 -138 1 -143 30 -200 49 -96 122 -131 295 -142 112 -7 212 8 286
41 109 50 146 132 146 321 0 97 -7 135 -34 190 -54 107 -122 137 -323 141 -77
2 -160 -1 -184 -6z"/>
<path d="M5905 3966 c-182 -42 -350 -138 -515 -293 l-80 -75 0 132 c0 131 0
132 -28 160 -41 40 -116 53 -286 48 -161 -4 -228 -24 -246 -73 -6 -17 -10
-436 -10 -1174 0 -1143 0 -1148 21 -1174 29 -38 104 -57 249 -64 134 -6 274 7
334 32 70 30 66 -24 66 822 l0 763 118 118 c132 133 193 174 302 198 67 16 79
16 146 1 151 -33 234 -130 269 -313 12 -62 15 -208 15 -792 0 -827 -6 -773 90
-806 80 -28 398 -30 482 -2 98 32 89 -62 86 922 l-3 869 -27 95 c-36 130 -62
196 -106 268 -97 161 -229 263 -417 322 -90 29 -364 38 -460 16z"/>
<path d="M11298 3957 c-87 -30 -157 -79 -251 -175 -82 -83 -156 -170 -159
-187 -1 -5 -4 55 -7 133 -6 141 -7 144 -33 167 -38 32 -109 45 -251 45 -146 0
-229 -17 -266 -54 l-26 -26 -3 -1138 c-2 -783 0 -1148 8 -1174 8 -29 19 -41
53 -57 54 -26 173 -42 298 -40 187 3 288 33 308 91 8 21 11 257 11 736 l0 705
58 80 c91 128 187 221 266 258 88 41 157 42 277 5 47 -14 96 -26 110 -26 39 0
66 33 80 97 16 72 16 401 0 459 -23 86 -89 114 -276 121 -117 3 -137 1 -197
-20z"/>
<path d="M12731 3969 c-101 -13 -307 -67 -412 -109 -209 -82 -280 -152 -295
-286 -12 -120 16 -261 61 -304 43 -40 92 -33 226 33 105 51 284 123 334 133
112 23 157 27 265 28 330 2 429 -103 430 -455 l0 -66 -272 -6 c-288 -6 -377
-16 -563 -63 -397 -103 -605 -351 -605 -721 1 -310 140 -537 405 -658 124 -57
323 -91 480 -82 229 13 428 96 598 247 l57 52 0 -86 c0 -108 10 -131 69 -153
37 -15 76 -18 201 -18 165 0 215 10 250 48 20 20 20 41 20 866 -1 901 -4 976
-49 1110 -41 119 -80 182 -165 266 -123 122 -272 189 -491 220 -109 16 -436
18 -544 4z m609 -1638 l0 -178 -57 -58 c-161 -160 -304 -219 -474 -195 -115
16 -188 62 -232 144 -32 59 -32 213 0 272 49 92 151 155 290 178 44 8 165 14
276 15 l197 1 0 -179z"/>
<path d="M3610 3930 c-66 -14 -98 -29 -120 -58 -20 -24 -20 -46 -20 -1183 l0
-1158 22 -21 c44 -40 120 -54 303 -55 188 0 258 12 306 52 l29 25 0 1163 0
1163 -30 26 c-17 14 -47 30 -68 37 -47 14 -362 21 -422 9z"/>
<path d="M1686 2163 c-4 -4 -42 -10 -85 -14 -122 -11 -209 -66 -260 -164 -85
-166 -9 -366 168 -437 55 -22 65 -23 561 -26 529 -3 599 1 675 39 138 71 206
234 155 374 -12 33 -23 70 -24 83 -4 34 -64 91 -131 123 l-60 29 -496 0 c-273
0 -499 -3 -503 -7z m924 -275 c26 -28 25 -58 -1 -92 l-20 -26 -476 0 c-429 0
-478 2 -495 17 -23 20 -24 80 -2 105 16 16 46 18 495 18 478 0 479 0 499 -22z"/>
<path d="M6810 1169 c-73 -9 -122 -31 -174 -79 -82 -76 -124 -223 -105 -370
24 -195 129 -282 335 -282 69 0 94 5 144 28 105 47 159 127 181 264 29 186
-38 358 -158 412 -53 23 -151 35 -223 27z m149 -167 c49 -36 66 -88 66 -197 0
-91 -3 -104 -27 -146 -36 -61 -82 -83 -155 -76 -108 11 -137 56 -138 212 0
130 22 185 87 216 51 24 129 20 167 -9z"/>
<path d="M9136 1168 c-77 -10 -135 -39 -184 -93 -53 -57 -76 -105 -92 -189
-26 -139 7 -293 78 -363 58 -56 112 -76 228 -81 90 -4 107 -2 161 20 77 31
113 61 146 118 45 80 60 152 54 259 -3 53 -13 117 -22 143 -22 62 -93 141
-147 162 -56 23 -151 33 -222 24z m145 -162 c55 -38 81 -141 67 -262 -13 -117
-76 -173 -179 -161 -107 13 -134 55 -134 212 0 137 16 178 85 213 50 26 123
25 161 -2z"/>
<path d="M13597 1169 c-100 -15 -169 -78 -185 -169 -20 -114 23 -183 155 -249
139 -70 158 -96 107 -148 -23 -23 -31 -25 -87 -21 -36 2 -81 13 -108 26 -25
12 -50 22 -57 22 -17 0 -32 -34 -32 -75 0 -72 85 -117 215 -116 73 1 109 11
163 45 103 65 123 234 39 324 -12 13 -62 44 -112 69 -105 53 -125 68 -125 98
0 55 78 71 172 35 29 -11 58 -20 65 -20 17 0 28 86 15 115 -22 47 -130 78
-225 64z"/>
<path d="M3037 1156 c-89 -33 -146 -88 -188 -181 -20 -43 -23 -67 -23 -180 -1
-123 1 -133 27 -187 56 -115 146 -168 282 -168 50 0 92 7 126 19 76 29 89 45
89 106 0 76 -16 86 -81 50 -44 -24 -59 -27 -119 -23 -78 4 -102 19 -131 83
-13 29 -19 64 -19 125 0 99 19 151 69 193 45 37 128 38 186 2 71 -44 95 -32
95 46 0 54 -13 75 -63 101 -54 28 -193 36 -250 14z"/>
<path d="M4045 1163 c-44 -11 -45 -20 -45 -364 0 -269 2 -329 14 -338 23 -19
81 -24 120 -11 l36 12 0 139 0 139 115 0 115 0 0 -140 c0 -160 -3 -155 87
-154 87 0 83 -19 83 359 0 378 4 359 -83 359 -89 1 -87 5 -87 -144 l0 -130
-115 0 -115 0 0 124 c0 89 -4 127 -13 134 -16 13 -84 23 -112 15z"/>
<path d="M7915 1163 c-45 -12 -45 -9 -45 -357 0 -245 3 -335 12 -344 8 -8 66
-12 194 -12 157 0 183 2 188 16 10 27 7 99 -6 112 -8 8 -49 12 -120 12 l-108
0 0 279 c0 154 -4 282 -8 285 -15 9 -86 15 -107 9z"/>
<path d="M10391 1151 c-176 -66 -268 -264 -216 -464 32 -123 114 -204 239
-238 112 -30 337 6 356 57 14 36 13 297 -1 328 -15 32 -32 36 -166 36 -88 0
-115 -3 -127 -16 -19 -18 -22 -94 -4 -112 7 -7 39 -12 75 -12 l64 0 -3 -67
c-3 -65 -4 -67 -33 -75 -43 -12 -119 0 -157 26 -18 11 -43 40 -55 64 -69 136
-10 307 117 342 55 15 151 2 211 -29 51 -27 75 -27 83 2 31 115 -37 168 -224
174 -86 3 -115 0 -159 -16z"/>
<path d="M11515 1163 c-45 -12 -45 -8 -45 -364 0 -259 3 -340 13 -346 19 -12
125 -7 142 7 13 11 15 57 15 339 0 246 -3 331 -12 344 -14 17 -79 29 -113 20z"/>
<path d="M590 1145 c-12 -15 -16 -97 -5 -115 3 -6 45 -10 96 -10 l89 0 0 -278
0 -279 23 -10 c25 -12 107 -10 126 1 8 5 11 95 11 286 l0 279 93 3 92 3 3 44
c2 25 1 55 -3 68 l-5 23 -254 0 c-210 0 -256 -3 -266 -15z"/>
<path d="M1776 1144 c-14 -13 -16 -59 -16 -344 0 -315 1 -330 19 -340 21 -11
368 -14 395 -4 12 4 16 20 16 54 0 74 -11 80 -146 80 l-114 0 0 80 0 80 104 0
c114 0 116 1 116 65 0 64 -2 65 -115 65 l-103 0 -4 70 -3 70 120 0 c81 0 125
4 133 12 16 16 16 100 0 116 -8 8 -67 12 -199 12 -157 0 -190 -3 -203 -16z"/>
<path d="M5281 1134 c-20 -26 -21 -38 -21 -343 0 -174 4 -321 8 -327 12 -19
68 -26 111 -14 l41 11 0 227 c1 196 3 223 14 197 31 -72 210 -392 231 -414 30
-31 126 -36 168 -8 l27 17 0 329 c0 271 -2 331 -14 340 -9 7 -38 11 -73 9
l-58 -3 -5 -225 c-3 -124 -7 -218 -8 -210 -4 30 -205 396 -228 418 -21 19 -36
22 -99 22 -68 0 -75 -2 -94 -26z"/>
<path d="M12362 1152 c-26 -17 -32 -85 -32 -362 0 -210 4 -292 13 -310 l13
-25 193 -3 c134 -2 198 1 207 9 8 6 14 30 14 54 0 67 -16 75 -153 75 l-117 0
0 80 0 80 103 0 c67 0 107 4 115 12 16 16 15 93 -1 106 -7 6 -59 12 -115 13
l-102 1 0 69 0 68 127 3 127 3 8 33 c5 17 5 47 0 65 l-8 32 -190 2 c-104 2
-195 -1 -202 -5z"/>
</g>
</svg>
